<svg id="Filmore_Full_Logo_" data-name="Filmore (Full Logo)" xmlns="http://www.w3.org/2000/svg" xmlns:xlink="http://www.w3.org/1999/xlink" width="155.726" height="26.128" viewBox="0 0 155.726 26.128">
  <defs>
    <clipPath id="clip-path">
      <path id="Clip_5" data-name="Clip 5" d="M0,3.757S5.824,1.014,12.582,5.224h0l3.952-3.905A14.374,14.374,0,0,0,10.348,0h0A16.6,16.6,0,0,0,0,3.757" transform="translate(0.055 0.479)" fill="none"/>
    </clipPath>
    <linearGradient id="linear-gradient" y1="0.5" x2="1" y2="0.5" gradientUnits="objectBoundingBox">
      <stop offset="0" stop-color="#15284c"/>
      <stop offset="1" stop-color="#6aaae4"/>
    </linearGradient>
  </defs>
  <path id="Fill_1" data-name="Fill 1" d="M0,25H5V0H0Z" transform="translate(28)" fill="#fff"/>
  <path id="Fill_2" data-name="Fill 2" d="M0,0V25H16V19.9H5.657V0Z" transform="translate(39)" fill="#fff"/>
  <path id="Fill_3" data-name="Fill 3" d="M19.588.01,12.5,10.538,5.366.01,0,0V25H5.366V9.978L12.5,19.614l7.088-9.633L19.634,25H25V0Z" transform="translate(59)" fill="#fff"/>
  <g id="Group_16" data-name="Group 16" transform="translate(6)">
    <path id="Fill_4" data-name="Fill 4" d="M13.136,25.907A12.759,12.759,0,0,1,0,12.955,12.76,12.76,0,0,1,13.136,0,12.76,12.76,0,0,1,26.272,12.955,12.759,12.759,0,0,1,13.136,25.907Zm0-20.563a7.477,7.477,0,0,0-7.5,7.61,7.5,7.5,0,1,0,15.007,0A7.566,7.566,0,0,0,13.136,5.344Z" transform="translate(81.306 0.221)" fill="#fff"/>
    <path id="Fill_6" data-name="Fill 6" d="M15.375,5.113V0H0V25.058H15.375V19.946H5.436V14.97h9.153V9.857H5.436V5.113Z" transform="translate(134.351 0.646)" fill="#fff"/>
    <path id="Fill_9" data-name="Fill 9" d="M17.424,0H0V24.958H5.376V5.287H17.424Z" transform="translate(0.051 0.745)" fill="#fff"/>
    <path id="Fill_14" data-name="Fill 14" d="M5.436,25.059H0V0H9.323c5.271,0,8.418,2.69,8.418,7.2a6.185,6.185,0,0,1-1.748,4.534,6.781,6.781,0,0,1-2.671,1.624A14.189,14.189,0,0,1,16.9,18.077a21.258,21.258,0,0,1,1.8,6.979H12.964c-.994-6.1-3.092-9.2-6.235-9.2H5.436v9.2Zm0-19.946v5.633H9.284A2.643,2.643,0,0,0,12.108,7.93,2.643,2.643,0,0,0,9.284,5.113Z" transform="translate(111.473 0.646)" fill="#fff"/>
  </g>
  <path id="Fill_2-2" data-name="Fill 2" d="M11.5,5.584A13.1,13.1,0,0,1,19.081,8L23,4.009A18.488,18.488,0,0,0,1.329,3.051Q.644,3.5,0,4.009L3.919,8A13.094,13.094,0,0,1,11.5,5.584" transform="translate(0 9)" fill="#ff4c43"/>
  <g id="Group_6" data-name="Group 6" transform="translate(6 12)">
    <path id="Clip_5-2" data-name="Clip 5" d="M0,3.757S5.824,1.014,12.582,5.224h0l3.952-3.905A14.374,14.374,0,0,0,10.348,0h0A16.6,16.6,0,0,0,0,3.757" transform="translate(0.055 0.479)" fill="none"/>
    <g id="Group_6-2" data-name="Group 6" clip-path="url(#clip-path)">
      <path id="Fill_4-2" data-name="Fill 4" d="M0,3.757S5.824,1.014,12.582,5.224h0l3.952-3.905A14.374,14.374,0,0,0,10.348,0h0A16.6,16.6,0,0,0,0,3.757" transform="translate(0.055 0.479)" fill="url(#linear-gradient)"/>
    </g>
  </g>
</svg>
